# MagicaVoxel @ Ephtracy

# group
g BlueTeam

# material
mtllib BlueTeam.mtl
usemtl palette

# normals
vn -1 0 0
vn 1 0 0
vn 0 0 1
vn 0 0 -1
vn 0 -1 0
vn 0 1 0

# texcoords
vt 0.0371094 0.5
vt 0.244141 0.5
vt 0.849609 0.5
vt 0.853516 0.5
vt 0.923828 0.5
vt 0.994141 0.5

# verts
v -13 24 0.5
v -13 24 -2.5
v -13 26 0.5
v -13 26 -2.5
v -6 30 0.5
v -6 30 -2.5
v -6 33 0.5
v -6 33 -2.5
v -5 14 1.5
v -5 14 -3.5
v -5 24 0.5
v -5 24 -2.5
v -5 26 1.5
v -5 26 0.5
v -5 26 -2.5
v -5 26 -3.5
v -4 0 3.5
v -4 0 -3.5
v -4 2 3.5
v -4 2 1.5
v -4 2 0.5
v -4 2 -2.5
v -4 3 1.5
v -4 3 0.5
v -4 3 -2.5
v -4 3 -3.5
v -4 14 0.5
v -4 14 -2.5
v -4 27 2.5
v -4 27 -3.5
v -4 30 0.5
v -4 30 -2.5
v -4 33 3.5
v -4 33 2.5
v -4 33 0.5
v -4 33 -2.5
v -4 34 3.5
v -4 34 2.5
v -4 36 3.5
v -4 36 -3.5
v -3 26 2.5
v -3 26 1.5
v -3 26 -3.5
v -3 27 2.5
v -3 27 -3.5
v -3 31 3.5
v -3 31 2.5
v -3 33 3.5
v -3 33 2.5
v -2 27 3.5
v -2 27 2.5
v -2 28 3.5
v -2 28 2.5
v -2 29 3.5
v -2 29 2.5
v -2 30 3.5
v -2 30 2.5
v -1 26 3.5
v -1 26 2.5
v -1 27 3.5
v -1 27 2.5
v -1 29 4.5
v -1 29 3.5
v -1 30 3.5
v -1 30 2.5
v -1 31 4.5
v -1 31 3.5
v -1 33 3.5
v -1 33 2.5
v 1 0 3.5
v 1 0 -3.5
v 1 2 3.5
v 1 2 1.5
v 1 2 0.5
v 1 2 -2.5
v 1 3 1.5
v 1 3 0.5
v 1 3 -2.5
v 1 3 -3.5
v 1 14 0.5
v 1 14 -0.5
v 1 14 -1.5
v 1 14 -2.5
v 1 27 3.5
v 1 27 2.5
v 1 28 3.5
v 1 28 2.5
v 2 31 3.5
v 2 31 2.5
v 2 33 3.5
v 2 33 2.5
v -2 31 3.5
v -2 31 2.5
v -2 33 3.5
v -2 33 2.5
v -1 0 3.5
v -1 0 -3.5
v -1 2 3.5
v -1 2 1.5
v -1 2 0.5
v -1 2 -2.5
v -1 3 1.5
v -1 3 0.5
v -1 3 -2.5
v -1 3 -3.5
v -1 14 0.5
v -1 14 -0.5
v -1 14 -1.5
v -1 14 -2.5
v -1 27 3.5
v -1 27 2.5
v -1 28 3.5
v -1 28 2.5
v 1 26 3.5
v 1 26 2.5
v 1 27 3.5
v 1 27 2.5
v 1 29 4.5
v 1 29 3.5
v 1 30 3.5
v 1 30 2.5
v 1 31 4.5
v 1 31 3.5
v 1 33 3.5
v 1 33 2.5
v 2 27 3.5
v 2 27 2.5
v 2 28 3.5
v 2 28 2.5
v 2 29 3.5
v 2 29 2.5
v 2 30 3.5
v 2 30 2.5
v 3 26 2.5
v 3 26 1.5
v 3 26 -3.5
v 3 27 2.5
v 3 27 -3.5
v 3 31 3.5
v 3 31 2.5
v 3 33 3.5
v 3 33 2.5
v 4 0 3.5
v 4 0 -3.5
v 4 2 3.5
v 4 2 1.5
v 4 2 0.5
v 4 2 -2.5
v 4 3 1.5
v 4 3 0.5
v 4 3 -2.5
v 4 3 -3.5
v 4 14 0.5
v 4 14 -2.5
v 4 27 2.5
v 4 27 -3.5
v 4 30 0.5
v 4 30 -2.5
v 4 33 3.5
v 4 33 2.5
v 4 33 0.5
v 4 33 -2.5
v 4 34 3.5
v 4 34 2.5
v 4 36 3.5
v 4 36 -3.5
v 5 14 1.5
v 5 14 -3.5
v 5 24 0.5
v 5 24 -2.5
v 5 26 1.5
v 5 26 0.5
v 5 26 -2.5
v 5 26 -3.5
v 6 30 0.5
v 6 30 -2.5
v 6 33 0.5
v 6 33 -2.5
v 13 24 0.5
v 13 24 -2.5
v 13 26 0.5
v 13 26 -2.5
v -1 29 4.5
v -1 31 4.5
v 1 29 4.5
v 1 31 4.5
v -4 0 3.5
v -4 2 3.5
v -4 33 3.5
v -4 34 3.5
v -4 36 3.5
v -3 31 3.5
v -3 33 3.5
v -2 27 3.5
v -2 28 3.5
v -2 29 3.5
v -2 30 3.5
v -2 31 3.5
v -2 33 3.5
v -1 0 3.5
v -1 2 3.5
v -1 26 3.5
v -1 27 3.5
v -1 28 3.5
v -1 29 3.5
v -1 30 3.5
v -1 31 3.5
v -1 33 3.5
v -1 34 3.5
v 1 0 3.5
v 1 2 3.5
v 1 26 3.5
v 1 27 3.5
v 1 28 3.5
v 1 29 3.5
v 1 30 3.5
v 1 31 3.5
v 1 33 3.5
v 1 34 3.5
v 2 27 3.5
v 2 28 3.5
v 2 29 3.5
v 2 30 3.5
v 2 31 3.5
v 2 33 3.5
v 3 31 3.5
v 3 33 3.5
v 4 0 3.5
v 4 2 3.5
v 4 33 3.5
v 4 34 3.5
v 4 36 3.5
v -4 27 2.5
v -4 33 2.5
v -3 26 2.5
v -3 27 2.5
v -3 31 2.5
v -3 33 2.5
v -2 27 2.5
v -2 28 2.5
v -2 29 2.5
v -2 30 2.5
v -2 31 2.5
v -2 33 2.5
v -1 26 2.5
v -1 27 2.5
v -1 28 2.5
v -1 30 2.5
v -1 33 2.5
v 1 26 2.5
v 1 27 2.5
v 1 28 2.5
v 1 30 2.5
v 1 33 2.5
v 2 27 2.5
v 2 28 2.5
v 2 29 2.5
v 2 30 2.5
v 2 31 2.5
v 2 33 2.5
v 3 26 2.5
v 3 27 2.5
v 3 31 2.5
v 3 33 2.5
v 4 27 2.5
v 4 33 2.5
v -5 14 1.5
v -5 26 1.5
v -4 2 1.5
v -4 3 1.5
v -3 2 1.5
v -3 3 1.5
v -3 25 1.5
v -3 26 1.5
v -2 2 1.5
v -2 3 1.5
v -2 24 1.5
v -2 25 1.5
v -1 2 1.5
v -1 3 1.5
v 1 2 1.5
v 1 3 1.5
v 2 2 1.5
v 2 3 1.5
v 2 24 1.5
v 2 25 1.5
v 3 2 1.5
v 3 3 1.5
v 3 25 1.5
v 3 26 1.5
v 4 2 1.5
v 4 3 1.5
v 5 14 1.5
v 5 26 1.5
v -13 24 0.5
v -13 26 0.5
v -6 24 0.5
v -6 26 0.5
v -6 30 0.5
v -6 33 0.5
v -5 24 0.5
v -5 26 0.5
v -4 3 0.5
v -4 14 0.5
v -4 30 0.5
v -4 33 0.5
v -3 3 0.5
v -2 3 0.5
v -1 3 0.5
v -1 14 0.5
v 1 3 0.5
v 1 14 0.5
v 2 3 0.5
v 3 3 0.5
v 4 3 0.5
v 4 14 0.5
v 4 30 0.5
v 4 33 0.5
v 5 24 0.5
v 5 26 0.5
v 6 24 0.5
v 6 26 0.5
v 6 30 0.5
v 6 33 0.5
v 13 24 0.5
v 13 26 0.5
v -13 24 -2.5
v -13 26 -2.5
v -6 24 -2.5
v -6 26 -2.5
v -6 30 -2.5
v -6 33 -2.5
v -5 24 -2.5
v -5 26 -2.5
v -4 3 -2.5
v -4 14 -2.5
v -4 30 -2.5
v -4 33 -2.5
v -1 3 -2.5
v -1 14 -2.5
v 1 3 -2.5
v 1 14 -2.5
v 4 3 -2.5
v 4 14 -2.5
v 4 30 -2.5
v 4 33 -2.5
v 5 24 -2.5
v 5 26 -2.5
v 6 24 -2.5
v 6 26 -2.5
v 6 30 -2.5
v 6 33 -2.5
v 13 24 -2.5
v 13 26 -2.5
v -5 14 -3.5
v -5 26 -3.5
v -4 0 -3.5
v -4 3 -3.5
v -4 27 -3.5
v -4 36 -3.5
v -3 26 -3.5
v -3 27 -3.5
v -1 0 -3.5
v -1 3 -3.5
v 1 0 -3.5
v 1 3 -3.5
v 3 26 -3.5
v 3 27 -3.5
v 4 0 -3.5
v 4 3 -3.5
v 4 27 -3.5
v 4 36 -3.5
v 5 14 -3.5
v 5 26 -3.5
v -4 0 3.5
v -1 0 3.5
v 1 0 3.5
v 4 0 3.5
v -4 0 -3.5
v -1 0 -3.5
v 1 0 -3.5
v 4 0 -3.5
v -5 14 1.5
v 5 14 1.5
v -4 14 0.5
v -1 14 0.5
v 1 14 0.5
v 4 14 0.5
v -1 14 -0.5
v 1 14 -0.5
v -1 14 -1.5
v 1 14 -1.5
v -4 14 -2.5
v -1 14 -2.5
v 1 14 -2.5
v 4 14 -2.5
v -5 14 -3.5
v 5 14 -3.5
v -13 24 0.5
v -6 24 0.5
v -5 24 0.5
v 5 24 0.5
v 6 24 0.5
v 13 24 0.5
v -13 24 -2.5
v -6 24 -2.5
v -5 24 -2.5
v 5 24 -2.5
v 6 24 -2.5
v 13 24 -2.5
v -1 26 3.5
v 1 26 3.5
v -3 26 2.5
v -1 26 2.5
v 1 26 2.5
v 3 26 2.5
v -3 26 1.5
v 3 26 1.5
v -2 27 3.5
v -1 27 3.5
v 1 27 3.5
v 2 27 3.5
v -4 27 2.5
v -3 27 2.5
v -2 27 2.5
v -1 27 2.5
v 1 27 2.5
v 2 27 2.5
v 3 27 2.5
v 4 27 2.5
v -4 27 -3.5
v -3 27 -3.5
v 3 27 -3.5
v 4 27 -3.5
v -1 29 4.5
v 1 29 4.5
v -2 29 3.5
v -1 29 3.5
v 1 29 3.5
v 2 29 3.5
v -2 29 2.5
v 2 29 2.5
v -6 30 0.5
v -4 30 0.5
v 4 30 0.5
v 6 30 0.5
v -6 30 -2.5
v -4 30 -2.5
v 4 30 -2.5
v 6 30 -2.5
v -3 31 3.5
v -2 31 3.5
v 2 31 3.5
v 3 31 3.5
v -3 31 2.5
v -2 31 2.5
v 2 31 2.5
v 3 31 2.5
v -4 33 3.5
v -3 33 3.5
v -2 33 3.5
v -1 33 3.5
v 1 33 3.5
v 2 33 3.5
v 3 33 3.5
v 4 33 3.5
v -4 33 2.5
v -3 33 2.5
v -2 33 2.5
v -1 33 2.5
v 1 33 2.5
v 2 33 2.5
v 3 33 2.5
v 4 33 2.5
v -4 2 3.5
v -1 2 3.5
v 1 2 3.5
v 4 2 3.5
v -3 2 2.5
v -2 2 2.5
v 2 2 2.5
v 3 2 2.5
v -4 2 1.5
v -3 2 1.5
v -2 2 1.5
v -1 2 1.5
v 1 2 1.5
v 2 2 1.5
v 3 2 1.5
v 4 2 1.5
v -4 3 1.5
v -3 3 1.5
v -2 3 1.5
v -1 3 1.5
v 1 3 1.5
v 2 3 1.5
v 3 3 1.5
v 4 3 1.5
v -4 3 0.5
v -3 3 0.5
v -2 3 0.5
v -1 3 0.5
v 1 3 0.5
v 2 3 0.5
v 3 3 0.5
v 4 3 0.5
v -4 3 -2.5
v -1 3 -2.5
v 1 3 -2.5
v 4 3 -2.5
v -4 3 -3.5
v -1 3 -3.5
v 1 3 -3.5
v 4 3 -3.5
v -5 26 1.5
v -3 26 1.5
v 3 26 1.5
v 5 26 1.5
v -13 26 0.5
v -6 26 0.5
v -5 26 0.5
v 5 26 0.5
v 6 26 0.5
v 13 26 0.5
v -13 26 -2.5
v -6 26 -2.5
v -5 26 -2.5
v 5 26 -2.5
v 6 26 -2.5
v 13 26 -2.5
v -5 26 -3.5
v -3 26 -3.5
v 3 26 -3.5
v 5 26 -3.5
v -1 27 3.5
v 1 27 3.5
v -1 27 2.5
v 1 27 2.5
v -2 28 3.5
v -1 28 3.5
v 1 28 3.5
v 2 28 3.5
v -2 28 2.5
v -1 28 2.5
v 1 28 2.5
v 2 28 2.5
v -2 30 3.5
v -1 30 3.5
v 1 30 3.5
v 2 30 3.5
v -2 30 2.5
v -1 30 2.5
v 1 30 2.5
v 2 30 2.5
v -1 31 4.5
v 1 31 4.5
v -1 31 3.5
v 1 31 3.5
v -6 33 0.5
v -4 33 0.5
v 4 33 0.5
v 6 33 0.5
v -6 33 -2.5
v -4 33 -2.5
v 4 33 -2.5
v 6 33 -2.5
v -4 36 3.5
v 4 36 3.5
v -4 36 -3.5
v 4 36 -3.5

# faces
f 3/1/1 2/1/1 1/1/1
f 4/1/1 2/1/1 3/1/1
f 7/1/1 6/1/1 5/1/1
f 8/1/1 6/1/1 7/1/1
f 11/5/1 10/5/1 9/5/1
f 12/5/1 10/5/1 11/5/1
f 13/5/1 11/5/1 9/5/1
f 14/5/1 11/5/1 13/5/1
f 15/5/1 10/5/1 12/5/1
f 16/5/1 10/5/1 15/5/1
f 19/6/1 18/6/1 17/6/1
f 20/6/1 18/6/1 19/6/1
f 21/6/1 18/6/1 20/6/1
f 22/6/1 18/6/1 21/6/1
f 23/6/1 21/6/1 20/6/1
f 24/5/1 22/5/1 21/5/1
f 24/6/1 21/6/1 23/6/1
f 25/6/1 18/6/1 22/6/1
f 25/5/1 22/5/1 24/5/1
f 26/6/1 18/6/1 25/6/1
f 27/5/1 25/5/1 24/5/1
f 28/5/1 25/5/1 27/5/1
f 31/1/1 30/1/1 29/1/1
f 32/1/1 30/1/1 31/1/1
f 34/1/1 31/1/1 29/1/1
f 35/1/1 31/1/1 34/1/1
f 36/1/1 30/1/1 32/1/1
f 37/6/1 34/6/1 33/6/1
f 38/1/1 35/1/1 34/1/1
f 38/6/1 34/6/1 37/6/1
f 38/1/1 36/1/1 35/1/1
f 39/1/1 38/1/1 37/1/1
f 40/1/1 30/1/1 36/1/1
f 40/1/1 38/1/1 39/1/1
f 40/1/1 36/1/1 38/1/1
f 44/1/1 42/1/1 41/1/1
f 44/1/1 43/1/1 42/1/1
f 45/1/1 43/1/1 44/1/1
f 48/6/1 47/6/1 46/6/1
f 49/6/1 47/6/1 48/6/1
f 52/6/1 51/6/1 50/6/1
f 53/6/1 51/6/1 52/6/1
f 56/1/1 55/1/1 54/1/1
f 57/1/1 55/1/1 56/1/1
f 60/6/1 59/6/1 58/6/1
f 61/6/1 59/6/1 60/6/1
f 64/1/1 63/1/1 62/1/1
f 66/1/1 64/1/1 62/1/1
f 66/1/1 65/1/1 64/1/1
f 67/1/1 65/1/1 66/1/1
f 68/1/1 65/1/1 67/1/1
f 69/1/1 65/1/1 68/1/1
f 72/6/1 71/6/1 70/6/1
f 73/6/1 71/6/1 72/6/1
f 74/6/1 71/6/1 73/6/1
f 75/6/1 71/6/1 74/6/1
f 76/6/1 74/6/1 73/6/1
f 77/5/1 75/5/1 74/5/1
f 77/6/1 74/6/1 76/6/1
f 78/6/1 71/6/1 75/6/1
f 78/5/1 75/5/1 77/5/1
f 79/6/1 71/6/1 78/6/1
f 80/5/1 78/5/1 77/5/1
f 81/5/1 78/5/1 80/5/1
f 82/5/1 78/5/1 81/5/1
f 83/5/1 78/5/1 82/5/1
f 86/6/1 85/6/1 84/6/1
f 87/6/1 85/6/1 86/6/1
f 90/6/1 89/6/1 88/6/1
f 91/6/1 89/6/1 90/6/1
f 92/6/2 93/6/2 94/6/2
f 94/6/2 93/6/2 95/6/2
f 96/6/2 97/6/2 98/6/2
f 98/6/2 97/6/2 99/6/2
f 99/6/2 97/6/2 100/6/2
f 100/6/2 97/6/2 101/6/2
f 99/6/2 100/6/2 102/6/2
f 100/5/2 101/5/2 103/5/2
f 102/6/2 100/6/2 103/6/2
f 101/6/2 97/6/2 104/6/2
f 103/5/2 101/5/2 104/5/2
f 104/6/2 97/6/2 105/6/2
f 103/5/2 104/5/2 106/5/2
f 106/5/2 104/5/2 107/5/2
f 107/5/2 104/5/2 108/5/2
f 108/5/2 104/5/2 109/5/2
f 110/6/2 111/6/2 112/6/2
f 112/6/2 111/6/2 113/6/2
f 114/6/2 115/6/2 116/6/2
f 116/6/2 115/6/2 117/6/2
f 118/1/2 119/1/2 120/1/2
f 118/1/2 120/1/2 122/1/2
f 120/1/2 121/1/2 122/1/2
f 122/1/2 121/1/2 123/1/2
f 123/1/2 121/1/2 124/1/2
f 124/1/2 121/1/2 125/1/2
f 126/6/2 127/6/2 128/6/2
f 128/6/2 127/6/2 129/6/2
f 130/1/2 131/1/2 132/1/2
f 132/1/2 131/1/2 133/1/2
f 134/1/2 135/1/2 137/1/2
f 135/1/2 136/1/2 137/1/2
f 137/1/2 136/1/2 138/1/2
f 139/6/2 140/6/2 141/6/2
f 141/6/2 140/6/2 142/6/2
f 143/6/2 144/6/2 145/6/2
f 145/6/2 144/6/2 146/6/2
f 146/6/2 144/6/2 147/6/2
f 147/6/2 144/6/2 148/6/2
f 146/6/2 147/6/2 149/6/2
f 147/5/2 148/5/2 150/5/2
f 149/6/2 147/6/2 150/6/2
f 148/6/2 144/6/2 151/6/2
f 150/5/2 148/5/2 151/5/2
f 151/6/2 144/6/2 152/6/2
f 150/5/2 151/5/2 153/5/2
f 153/5/2 151/5/2 154/5/2
f 155/1/2 156/1/2 157/1/2
f 157/1/2 156/1/2 158/1/2
f 155/1/2 157/1/2 160/1/2
f 160/1/2 157/1/2 161/1/2
f 158/1/2 156/1/2 162/1/2
f 159/6/2 160/6/2 163/6/2
f 160/1/2 161/1/2 164/1/2
f 163/6/2 160/6/2 164/6/2
f 161/1/2 162/1/2 164/1/2
f 163/1/2 164/1/2 165/1/2
f 162/1/2 156/1/2 166/1/2
f 165/1/2 164/1/2 166/1/2
f 164/1/2 162/1/2 166/1/2
f 167/5/2 168/5/2 169/5/2
f 169/5/2 168/5/2 170/5/2
f 167/5/2 169/5/2 171/5/2
f 171/5/2 169/5/2 172/5/2
f 170/5/2 168/5/2 173/5/2
f 173/5/2 168/5/2 174/5/2
f 175/1/2 176/1/2 177/1/2
f 177/1/2 176/1/2 178/1/2
f 179/1/2 180/1/2 181/1/2
f 181/1/2 180/1/2 182/1/2
f 185/1/3 184/1/3 183/1/3
f 186/1/3 184/1/3 185/1/3
f 193/6/3 190/6/3 189/6/3
f 198/6/3 193/6/3 192/6/3
f 199/6/3 190/6/3 193/6/3
f 199/6/3 193/6/3 198/6/3
f 200/6/3 188/6/3 187/6/3
f 201/6/3 188/6/3 200/6/3
f 203/6/3 195/6/3 194/6/3
f 204/6/3 195/6/3 203/6/3
f 205/1/3 197/1/3 196/1/3
f 206/1/3 197/1/3 205/1/3
f 208/6/3 190/6/3 199/6/3
f 209/1/3 191/1/3 190/1/3
f 209/6/3 190/6/3 208/6/3
f 212/6/3 203/6/3 202/6/3
f 213/6/3 203/6/3 212/6/3
f 217/1/3 208/1/3 207/1/3
f 217/1/3 209/1/3 208/1/3
f 218/1/3 209/1/3 217/1/3
f 219/1/3 191/1/3 209/1/3
f 219/1/3 209/1/3 218/1/3
f 220/6/3 214/6/3 213/6/3
f 221/6/3 214/6/3 220/6/3
f 222/1/3 216/1/3 215/1/3
f 223/1/3 216/1/3 222/1/3
f 225/6/3 219/6/3 218/6/3
f 226/6/3 225/6/3 224/6/3
f 227/6/3 219/6/3 225/6/3
f 227/6/3 225/6/3 226/6/3
f 228/6/3 211/6/3 210/6/3
f 229/6/3 211/6/3 228/6/3
f 230/6/3 219/6/3 227/6/3
f 231/1/3 191/1/3 219/1/3
f 231/6/3 219/6/3 230/6/3
f 232/1/3 191/1/3 231/1/3
f 236/1/3 234/1/3 233/1/3
f 237/1/3 234/1/3 236/1/3
f 238/1/3 234/1/3 237/1/3
f 239/1/3 236/1/3 235/1/3
f 239/1/3 237/1/3 236/1/3
f 240/1/3 237/1/3 239/1/3
f 241/1/3 237/1/3 240/1/3
f 242/1/3 237/1/3 241/1/3
f 243/1/3 237/1/3 242/1/3
f 245/1/3 239/1/3 235/1/3
f 246/1/3 239/1/3 245/1/3
f 247/1/3 241/1/3 240/1/3
f 248/1/3 244/1/3 243/1/3
f 248/1/3 243/1/3 242/1/3
f 249/1/3 244/1/3 248/1/3
f 251/1/3 247/1/3 246/1/3
f 252/1/3 241/1/3 247/1/3
f 252/1/3 247/1/3 251/1/3
f 255/1/3 251/1/3 250/1/3
f 256/1/3 241/1/3 252/1/3
f 257/1/3 241/1/3 256/1/3
f 258/1/3 254/1/3 253/1/3
f 259/1/3 254/1/3 258/1/3
f 260/1/3 254/1/3 259/1/3
f 261/1/3 257/1/3 256/1/3
f 261/1/3 255/1/3 250/1/3
f 261/1/3 259/1/3 258/1/3
f 261/1/3 258/1/3 257/1/3
f 261/1/3 256/1/3 255/1/3
f 262/1/3 259/1/3 261/1/3
f 263/1/3 259/1/3 262/1/3
f 265/1/3 264/1/3 263/1/3
f 265/1/3 263/1/3 262/1/3
f 266/1/3 264/1/3 265/1/3
f 271/6/3 270/6/3 269/6/3
f 272/6/3 270/6/3 271/6/3
f 273/5/3 268/5/3 267/5/3
f 274/5/3 268/5/3 273/5/3
f 275/1/3 272/1/3 271/1/3
f 276/1/3 272/1/3 275/1/3
f 277/5/3 273/5/3 267/5/3
f 278/1/3 274/1/3 273/1/3
f 278/5/3 273/5/3 277/5/3
f 279/6/3 276/6/3 275/6/3
f 280/6/3 276/6/3 279/6/3
f 283/6/3 282/6/3 281/6/3
f 284/6/3 282/6/3 283/6/3
f 285/5/3 277/5/3 267/5/3
f 285/1/3 278/1/3 277/1/3
f 286/1/3 274/1/3 278/1/3
f 286/1/3 278/1/3 285/1/3
f 287/1/3 284/1/3 283/1/3
f 288/1/3 284/1/3 287/1/3
f 289/1/3 274/1/3 286/1/3
f 289/5/3 286/5/3 285/5/3
f 290/1/3 274/1/3 289/1/3
f 291/6/3 288/6/3 287/6/3
f 292/6/3 288/6/3 291/6/3
f 293/5/3 285/5/3 267/5/3
f 293/5/3 289/5/3 285/5/3
f 293/5/3 290/5/3 289/5/3
f 294/5/3 290/5/3 293/5/3
f 297/1/3 296/1/3 295/1/3
f 298/1/3 296/1/3 297/1/3
f 301/5/3 298/5/3 297/5/3
f 302/5/3 298/5/3 301/5/3
f 305/1/3 300/1/3 299/1/3
f 306/1/3 300/1/3 305/1/3
f 307/5/3 304/5/3 303/5/3
f 308/5/3 304/5/3 307/5/3
f 309/5/3 304/5/3 308/5/3
f 310/5/3 304/5/3 309/5/3
f 313/5/3 312/5/3 311/5/3
f 314/5/3 312/5/3 313/5/3
f 315/5/3 312/5/3 314/5/3
f 316/5/3 312/5/3 315/5/3
f 321/5/3 320/5/3 319/5/3
f 322/5/3 320/5/3 321/5/3
f 323/1/3 318/1/3 317/1/3
f 324/1/3 318/1/3 323/1/3
f 325/1/3 322/1/3 321/1/3
f 326/1/3 322/1/3 325/1/3
f 327/1/4 328/1/4 329/1/4
f 329/1/4 328/1/4 330/1/4
f 329/5/4 330/5/4 333/5/4
f 333/5/4 330/5/4 334/5/4
f 331/1/4 332/1/4 337/1/4
f 337/1/4 332/1/4 338/1/4
f 335/5/4 336/5/4 339/5/4
f 339/5/4 336/5/4 340/5/4
f 341/5/4 342/5/4 343/5/4
f 343/5/4 342/5/4 344/5/4
f 347/5/4 348/5/4 349/5/4
f 349/5/4 348/5/4 350/5/4
f 345/1/4 346/1/4 351/1/4
f 351/1/4 346/1/4 352/1/4
f 349/1/4 350/1/4 353/1/4
f 353/1/4 350/1/4 354/1/4
f 355/5/4 356/5/4 361/5/4
f 359/1/4 360/1/4 362/1/4
f 357/6/4 358/6/4 363/6/4
f 363/6/4 358/6/4 364/6/4
f 355/5/4 361/5/4 367/5/4
f 361/1/4 362/1/4 367/1/4
f 362/1/4 360/1/4 368/1/4
f 367/1/4 362/1/4 368/1/4
f 365/6/4 366/6/4 369/6/4
f 369/6/4 366/6/4 370/6/4
f 368/1/4 360/1/4 371/1/4
f 371/1/4 360/1/4 372/1/4
f 355/5/4 367/5/4 373/5/4
f 373/5/4 367/5/4 374/5/4
f 379/6/5 376/6/5 375/6/5
f 380/6/5 376/6/5 379/6/5
f 381/6/5 378/6/5 377/6/5
f 382/6/5 378/6/5 381/6/5
f 385/5/5 384/5/5 383/5/5
f 386/5/5 384/5/5 385/5/5
f 387/5/5 384/5/5 386/5/5
f 388/5/5 384/5/5 387/5/5
f 389/5/5 387/5/5 386/5/5
f 390/5/5 387/5/5 389/5/5
f 391/4/5 390/4/5 389/4/5
f 392/4/5 390/4/5 391/4/5
f 393/5/5 385/5/5 383/5/5
f 394/5/5 392/5/5 391/5/5
f 395/5/5 392/5/5 394/5/5
f 396/5/5 384/5/5 388/5/5
f 397/5/5 395/5/5 394/5/5
f 397/5/5 396/5/5 395/5/5
f 397/5/5 394/5/5 393/5/5
f 397/5/5 393/5/5 383/5/5
f 398/5/5 384/5/5 396/5/5
f 398/5/5 396/5/5 397/5/5
f 405/1/5 400/1/5 399/1/5
f 406/5/5 401/5/5 400/5/5
f 406/1/5 400/1/5 405/1/5
f 407/5/5 401/5/5 406/5/5
f 408/5/5 403/5/5 402/5/5
f 409/1/5 404/1/5 403/1/5
f 409/5/5 403/5/5 408/5/5
f 410/1/5 404/1/5 409/1/5
f 414/6/5 412/6/5 411/6/5
f 415/6/5 412/6/5 414/6/5
f 417/1/5 414/1/5 413/1/5
f 417/1/5 416/1/5 415/1/5
f 417/1/5 415/1/5 414/1/5
f 418/1/5 416/1/5 417/1/5
f 425/6/5 420/6/5 419/6/5
f 426/6/5 420/6/5 425/6/5
f 427/6/5 422/6/5 421/6/5
f 428/6/5 422/6/5 427/6/5
f 431/1/5 424/1/5 423/1/5
f 432/1/5 424/1/5 431/1/5
f 433/1/5 430/1/5 429/1/5
f 434/1/5 430/1/5 433/1/5
f 438/1/5 436/1/5 435/1/5
f 439/1/5 436/1/5 438/1/5
f 441/1/5 438/1/5 437/1/5
f 441/1/5 440/1/5 439/1/5
f 441/1/5 439/1/5 438/1/5
f 442/1/5 440/1/5 441/1/5
f 447/1/5 444/1/5 443/1/5
f 448/1/5 444/1/5 447/1/5
f 449/1/5 446/1/5 445/1/5
f 450/1/5 446/1/5 449/1/5
f 455/6/5 452/6/5 451/6/5
f 456/6/5 452/6/5 455/6/5
f 457/6/5 454/6/5 453/6/5
f 458/6/5 454/6/5 457/6/5
f 467/6/5 460/6/5 459/6/5
f 468/6/5 460/6/5 467/6/5
f 469/6/5 462/6/5 461/6/5
f 470/6/5 462/6/5 469/6/5
f 471/6/5 464/6/5 463/6/5
f 472/6/5 464/6/5 471/6/5
f 473/6/5 466/6/5 465/6/5
f 474/6/5 466/6/5 473/6/5
f 475/6/6 476/6/6 479/6/6
f 479/6/6 476/6/6 480/6/6
f 477/6/6 478/6/6 481/6/6
f 481/6/6 478/6/6 482/6/6
f 475/6/6 479/6/6 483/6/6
f 479/1/6 480/1/6 484/1/6
f 483/6/6 479/6/6 484/6/6
f 480/6/6 476/6/6 485/6/6
f 484/1/6 480/1/6 485/1/6
f 485/6/6 476/6/6 486/6/6
f 477/6/6 481/6/6 487/6/6
f 481/1/6 482/1/6 488/1/6
f 487/6/6 481/6/6 488/6/6
f 482/6/6 478/6/6 489/6/6
f 488/1/6 482/1/6 489/1/6
f 489/6/6 478/6/6 490/6/6
f 491/6/6 492/6/6 499/6/6
f 492/1/6 493/1/6 500/1/6
f 499/6/6 492/6/6 500/6/6
f 493/6/6 494/6/6 501/6/6
f 500/1/6 493/1/6 501/1/6
f 501/6/6 494/6/6 502/6/6
f 495/6/6 496/6/6 503/6/6
f 496/1/6 497/1/6 504/1/6
f 503/6/6 496/6/6 504/6/6
f 497/6/6 498/6/6 505/6/6
f 504/1/6 497/1/6 505/1/6
f 505/6/6 498/6/6 506/6/6
f 507/6/6 508/6/6 511/6/6
f 511/6/6 508/6/6 512/6/6
f 509/6/6 510/6/6 513/6/6
f 513/6/6 510/6/6 514/6/6
f 515/5/6 516/5/6 521/5/6
f 517/5/6 518/5/6 522/5/6
f 519/1/6 520/1/6 525/1/6
f 520/5/6 521/5/6 526/5/6
f 525/1/6 520/1/6 526/1/6
f 521/5/6 516/5/6 527/5/6
f 526/5/6 521/5/6 527/5/6
f 517/5/6 522/5/6 528/5/6
f 522/5/6 523/5/6 528/5/6
f 523/1/6 524/1/6 529/1/6
f 528/5/6 523/5/6 529/5/6
f 529/1/6 524/1/6 530/1/6
f 527/5/6 516/5/6 531/5/6
f 531/5/6 516/5/6 532/5/6
f 517/5/6 528/5/6 533/5/6
f 533/5/6 528/5/6 534/5/6
f 535/6/6 536/6/6 537/6/6
f 537/6/6 536/6/6 538/6/6
f 539/6/6 540/6/6 543/6/6
f 543/6/6 540/6/6 544/6/6
f 541/6/6 542/6/6 545/6/6
f 545/6/6 542/6/6 546/6/6
f 547/1/6 548/1/6 551/1/6
f 551/1/6 548/1/6 552/1/6
f 549/1/6 550/1/6 553/1/6
f 553/1/6 550/1/6 554/1/6
f 555/1/6 556/1/6 557/1/6
f 557/1/6 556/1/6 558/1/6
f 559/1/6 560/1/6 563/1/6
f 563/1/6 560/1/6 564/1/6
f 561/1/6 562/1/6 565/1/6
f 565/1/6 562/1/6 566/1/6
f 567/1/6 568/1/6 569/1/6
f 569/1/6 568/1/6 570/1/6
