# MagicaVoxel @ Ephtracy

# group
g RedTeam

# material
mtllib RedTeam.mtl
usemtl palette

# normals
vn -1 0 0
vn 1 0 0
vn 0 0 1
vn 0 0 -1
vn 0 -1 0
vn 0 1 0

# texcoords
vt 0.0371094 0.5
vt 0.244141 0.5
vt 0.849609 0.5
vt 0.853516 0.5
vt 0.994141 0.5

# verts
v -13 24 0.5
v -13 24 -2.5
v -13 26 0.5
v -13 26 -2.5
v -6 30 0.5
v -6 30 -2.5
v -6 33 0.5
v -6 33 -2.5
v -5 14 1.5
v -5 14 -3.5
v -5 24 0.5
v -5 24 -2.5
v -5 26 1.5
v -5 26 0.5
v -5 26 -2.5
v -5 26 -3.5
v -4 0 3.5
v -4 0 -3.5
v -4 2 3.5
v -4 2 1.5
v -4 2 0.5
v -4 2 -2.5
v -4 3 1.5
v -4 3 0.5
v -4 3 -2.5
v -4 3 -3.5
v -4 14 0.5
v -4 14 -2.5
v -4 27 2.5
v -4 27 -3.5
v -4 30 0.5
v -4 30 -2.5
v -4 33 3.5
v -4 33 2.5
v -4 33 0.5
v -4 33 -2.5
v -4 34 3.5
v -4 34 2.5
v -4 36 3.5
v -4 36 -3.5
v -3 26 2.5
v -3 26 1.5
v -3 26 -3.5
v -3 27 2.5
v -3 27 -3.5
v -3 31 3.5
v -3 31 2.5
v -3 33 3.5
v -3 33 2.5
v -2 27 3.5
v -2 27 2.5
v -2 28 3.5
v -2 28 2.5
v -2 29 3.5
v -2 29 2.5
v -2 30 3.5
v -2 30 2.5
v -1 26 3.5
v -1 26 2.5
v -1 27 3.5
v -1 27 2.5
v -1 29 4.5
v -1 29 3.5
v -1 30 3.5
v -1 30 2.5
v -1 31 4.5
v -1 31 3.5
v -1 33 3.5
v -1 33 2.5
v 1 0 3.5
v 1 0 -3.5
v 1 2 3.5
v 1 2 1.5
v 1 2 0.5
v 1 2 -2.5
v 1 3 1.5
v 1 3 0.5
v 1 3 -2.5
v 1 3 -3.5
v 1 14 0.5
v 1 14 -2.5
v 1 27 3.5
v 1 27 2.5
v 1 28 3.5
v 1 28 2.5
v 2 31 3.5
v 2 31 2.5
v 2 33 3.5
v 2 33 2.5
v -2 31 3.5
v -2 31 2.5
v -2 33 3.5
v -2 33 2.5
v -1 0 3.5
v -1 0 -3.5
v -1 2 3.5
v -1 2 1.5
v -1 2 0.5
v -1 2 -2.5
v -1 3 1.5
v -1 3 0.5
v -1 3 -2.5
v -1 3 -3.5
v -1 14 0.5
v -1 14 -2.5
v -1 27 3.5
v -1 27 2.5
v -1 28 3.5
v -1 28 2.5
v 1 26 3.5
v 1 26 2.5
v 1 27 3.5
v 1 27 2.5
v 1 29 4.5
v 1 29 3.5
v 1 30 3.5
v 1 30 2.5
v 1 31 4.5
v 1 31 3.5
v 1 33 3.5
v 1 33 2.5
v 2 27 3.5
v 2 27 2.5
v 2 28 3.5
v 2 28 2.5
v 2 29 3.5
v 2 29 2.5
v 2 30 3.5
v 2 30 2.5
v 3 26 2.5
v 3 26 1.5
v 3 26 -3.5
v 3 27 2.5
v 3 27 -3.5
v 3 31 3.5
v 3 31 2.5
v 3 33 3.5
v 3 33 2.5
v 4 0 3.5
v 4 0 -3.5
v 4 2 3.5
v 4 2 1.5
v 4 2 0.5
v 4 2 -2.5
v 4 3 1.5
v 4 3 0.5
v 4 3 -2.5
v 4 3 -3.5
v 4 14 0.5
v 4 14 -2.5
v 4 27 2.5
v 4 27 -3.5
v 4 30 0.5
v 4 30 -2.5
v 4 33 3.5
v 4 33 2.5
v 4 33 0.5
v 4 33 -2.5
v 4 34 3.5
v 4 34 2.5
v 4 36 3.5
v 4 36 -3.5
v 5 14 1.5
v 5 14 -3.5
v 5 24 0.5
v 5 24 -2.5
v 5 26 1.5
v 5 26 0.5
v 5 26 -2.5
v 5 26 -3.5
v 6 30 0.5
v 6 30 -2.5
v 6 33 0.5
v 6 33 -2.5
v 13 24 0.5
v 13 24 -2.5
v 13 26 0.5
v 13 26 -2.5
v -1 29 4.5
v -1 31 4.5
v 1 29 4.5
v 1 31 4.5
v -4 0 3.5
v -4 2 3.5
v -4 33 3.5
v -4 34 3.5
v -4 36 3.5
v -3 31 3.5
v -3 33 3.5
v -2 27 3.5
v -2 28 3.5
v -2 29 3.5
v -2 30 3.5
v -2 31 3.5
v -2 33 3.5
v -1 0 3.5
v -1 2 3.5
v -1 26 3.5
v -1 27 3.5
v -1 28 3.5
v -1 29 3.5
v -1 30 3.5
v -1 31 3.5
v -1 33 3.5
v -1 34 3.5
v 1 0 3.5
v 1 2 3.5
v 1 26 3.5
v 1 27 3.5
v 1 28 3.5
v 1 29 3.5
v 1 30 3.5
v 1 31 3.5
v 1 33 3.5
v 1 34 3.5
v 2 27 3.5
v 2 28 3.5
v 2 29 3.5
v 2 30 3.5
v 2 31 3.5
v 2 33 3.5
v 3 31 3.5
v 3 33 3.5
v 4 0 3.5
v 4 2 3.5
v 4 33 3.5
v 4 34 3.5
v 4 36 3.5
v -4 27 2.5
v -4 33 2.5
v -3 26 2.5
v -3 27 2.5
v -3 31 2.5
v -3 33 2.5
v -2 27 2.5
v -2 28 2.5
v -2 29 2.5
v -2 30 2.5
v -2 31 2.5
v -2 33 2.5
v -1 26 2.5
v -1 27 2.5
v -1 28 2.5
v -1 30 2.5
v -1 33 2.5
v 1 26 2.5
v 1 27 2.5
v 1 28 2.5
v 1 30 2.5
v 1 33 2.5
v 2 27 2.5
v 2 28 2.5
v 2 29 2.5
v 2 30 2.5
v 2 31 2.5
v 2 33 2.5
v 3 26 2.5
v 3 27 2.5
v 3 31 2.5
v 3 33 2.5
v 4 27 2.5
v 4 33 2.5
v -5 14 1.5
v -5 26 1.5
v -4 2 1.5
v -4 3 1.5
v -3 2 1.5
v -3 3 1.5
v -3 25 1.5
v -3 26 1.5
v -2 2 1.5
v -2 3 1.5
v -2 24 1.5
v -2 25 1.5
v -1 2 1.5
v -1 3 1.5
v 1 2 1.5
v 1 3 1.5
v 2 2 1.5
v 2 3 1.5
v 2 24 1.5
v 2 25 1.5
v 3 2 1.5
v 3 3 1.5
v 3 25 1.5
v 3 26 1.5
v 4 2 1.5
v 4 3 1.5
v 5 14 1.5
v 5 26 1.5
v -13 24 0.5
v -13 26 0.5
v -6 24 0.5
v -6 26 0.5
v -6 30 0.5
v -6 33 0.5
v -5 24 0.5
v -5 26 0.5
v -4 3 0.5
v -4 14 0.5
v -4 30 0.5
v -4 33 0.5
v -3 3 0.5
v -2 3 0.5
v -1 3 0.5
v -1 14 0.5
v 1 3 0.5
v 1 14 0.5
v 2 3 0.5
v 3 3 0.5
v 4 3 0.5
v 4 14 0.5
v 4 30 0.5
v 4 33 0.5
v 5 24 0.5
v 5 26 0.5
v 6 24 0.5
v 6 26 0.5
v 6 30 0.5
v 6 33 0.5
v 13 24 0.5
v 13 26 0.5
v -13 24 -2.5
v -13 26 -2.5
v -6 24 -2.5
v -6 26 -2.5
v -6 30 -2.5
v -6 33 -2.5
v -5 24 -2.5
v -5 26 -2.5
v -4 3 -2.5
v -4 14 -2.5
v -4 30 -2.5
v -4 33 -2.5
v -1 3 -2.5
v -1 14 -2.5
v 1 3 -2.5
v 1 14 -2.5
v 4 3 -2.5
v 4 14 -2.5
v 4 30 -2.5
v 4 33 -2.5
v 5 24 -2.5
v 5 26 -2.5
v 6 24 -2.5
v 6 26 -2.5
v 6 30 -2.5
v 6 33 -2.5
v 13 24 -2.5
v 13 26 -2.5
v -5 14 -3.5
v -5 26 -3.5
v -4 0 -3.5
v -4 3 -3.5
v -4 27 -3.5
v -4 36 -3.5
v -3 26 -3.5
v -3 27 -3.5
v -1 0 -3.5
v -1 3 -3.5
v -1 14 -3.5
v -1 15 -3.5
v 1 0 -3.5
v 1 3 -3.5
v 1 14 -3.5
v 1 15 -3.5
v 3 26 -3.5
v 3 27 -3.5
v 4 0 -3.5
v 4 3 -3.5
v 4 27 -3.5
v 4 36 -3.5
v 5 14 -3.5
v 5 26 -3.5
v -4 0 3.5
v -1 0 3.5
v 1 0 3.5
v 4 0 3.5
v -4 0 -3.5
v -1 0 -3.5
v 1 0 -3.5
v 4 0 -3.5
v -5 14 1.5
v 5 14 1.5
v -4 14 0.5
v -1 14 0.5
v 1 14 0.5
v 4 14 0.5
v -4 14 -2.5
v -1 14 -2.5
v 1 14 -2.5
v 4 14 -2.5
v -5 14 -3.5
v -1 14 -3.5
v 1 14 -3.5
v 5 14 -3.5
v -13 24 0.5
v -6 24 0.5
v -5 24 0.5
v 5 24 0.5
v 6 24 0.5
v 13 24 0.5
v -13 24 -2.5
v -6 24 -2.5
v -5 24 -2.5
v 5 24 -2.5
v 6 24 -2.5
v 13 24 -2.5
v -1 26 3.5
v 1 26 3.5
v -3 26 2.5
v -1 26 2.5
v 1 26 2.5
v 3 26 2.5
v -3 26 1.5
v 3 26 1.5
v -2 27 3.5
v -1 27 3.5
v 1 27 3.5
v 2 27 3.5
v -4 27 2.5
v -3 27 2.5
v -2 27 2.5
v -1 27 2.5
v 1 27 2.5
v 2 27 2.5
v 3 27 2.5
v 4 27 2.5
v -4 27 -3.5
v -3 27 -3.5
v 3 27 -3.5
v 4 27 -3.5
v -1 29 4.5
v 1 29 4.5
v -2 29 3.5
v -1 29 3.5
v 1 29 3.5
v 2 29 3.5
v -2 29 2.5
v 2 29 2.5
v -6 30 0.5
v -4 30 0.5
v 4 30 0.5
v 6 30 0.5
v -6 30 -2.5
v -4 30 -2.5
v 4 30 -2.5
v 6 30 -2.5
v -3 31 3.5
v -2 31 3.5
v 2 31 3.5
v 3 31 3.5
v -3 31 2.5
v -2 31 2.5
v 2 31 2.5
v 3 31 2.5
v -4 33 3.5
v -3 33 3.5
v -2 33 3.5
v -1 33 3.5
v 1 33 3.5
v 2 33 3.5
v 3 33 3.5
v 4 33 3.5
v -4 33 2.5
v -3 33 2.5
v -2 33 2.5
v -1 33 2.5
v 1 33 2.5
v 2 33 2.5
v 3 33 2.5
v 4 33 2.5
v -4 2 3.5
v -1 2 3.5
v 1 2 3.5
v 4 2 3.5
v -3 2 2.5
v -2 2 2.5
v 2 2 2.5
v 3 2 2.5
v -4 2 1.5
v -3 2 1.5
v -2 2 1.5
v -1 2 1.5
v 1 2 1.5
v 2 2 1.5
v 3 2 1.5
v 4 2 1.5
v -4 3 1.5
v -3 3 1.5
v -2 3 1.5
v -1 3 1.5
v 1 3 1.5
v 2 3 1.5
v 3 3 1.5
v 4 3 1.5
v -4 3 0.5
v -3 3 0.5
v -2 3 0.5
v -1 3 0.5
v 1 3 0.5
v 2 3 0.5
v 3 3 0.5
v 4 3 0.5
v -4 3 -2.5
v -1 3 -2.5
v 1 3 -2.5
v 4 3 -2.5
v -4 3 -3.5
v -1 3 -3.5
v 1 3 -3.5
v 4 3 -3.5
v -5 26 1.5
v -3 26 1.5
v 3 26 1.5
v 5 26 1.5
v -13 26 0.5
v -6 26 0.5
v -5 26 0.5
v 5 26 0.5
v 6 26 0.5
v 13 26 0.5
v -13 26 -2.5
v -6 26 -2.5
v -5 26 -2.5
v 5 26 -2.5
v 6 26 -2.5
v 13 26 -2.5
v -5 26 -3.5
v -3 26 -3.5
v 3 26 -3.5
v 5 26 -3.5
v -1 27 3.5
v 1 27 3.5
v -1 27 2.5
v 1 27 2.5
v -2 28 3.5
v -1 28 3.5
v 1 28 3.5
v 2 28 3.5
v -2 28 2.5
v -1 28 2.5
v 1 28 2.5
v 2 28 2.5
v -2 30 3.5
v -1 30 3.5
v 1 30 3.5
v 2 30 3.5
v -2 30 2.5
v -1 30 2.5
v 1 30 2.5
v 2 30 2.5
v -1 31 4.5
v 1 31 4.5
v -1 31 3.5
v 1 31 3.5
v -6 33 0.5
v -4 33 0.5
v 4 33 0.5
v 6 33 0.5
v -6 33 -2.5
v -4 33 -2.5
v 4 33 -2.5
v 6 33 -2.5
v -4 36 3.5
v 4 36 3.5
v -4 36 -3.5
v 4 36 -3.5

# faces
f 3/1/1 2/1/1 1/1/1
f 4/1/1 2/1/1 3/1/1
f 7/1/1 6/1/1 5/1/1
f 8/1/1 6/1/1 7/1/1
f 11/3/1 10/3/1 9/3/1
f 12/3/1 10/3/1 11/3/1
f 13/3/1 11/3/1 9/3/1
f 14/3/1 11/3/1 13/3/1
f 15/3/1 10/3/1 12/3/1
f 16/3/1 10/3/1 15/3/1
f 19/5/1 18/5/1 17/5/1
f 20/5/1 18/5/1 19/5/1
f 21/5/1 18/5/1 20/5/1
f 22/5/1 18/5/1 21/5/1
f 23/5/1 21/5/1 20/5/1
f 24/3/1 22/3/1 21/3/1
f 24/5/1 21/5/1 23/5/1
f 25/5/1 18/5/1 22/5/1
f 25/3/1 22/3/1 24/3/1
f 26/5/1 18/5/1 25/5/1
f 27/3/1 25/3/1 24/3/1
f 28/3/1 25/3/1 27/3/1
f 31/1/1 30/1/1 29/1/1
f 32/1/1 30/1/1 31/1/1
f 34/1/1 31/1/1 29/1/1
f 35/1/1 31/1/1 34/1/1
f 36/1/1 30/1/1 32/1/1
f 37/5/1 34/5/1 33/5/1
f 38/1/1 35/1/1 34/1/1
f 38/5/1 34/5/1 37/5/1
f 38/1/1 36/1/1 35/1/1
f 39/1/1 38/1/1 37/1/1
f 40/1/1 30/1/1 36/1/1
f 40/1/1 38/1/1 39/1/1
f 40/1/1 36/1/1 38/1/1
f 44/1/1 42/1/1 41/1/1
f 44/1/1 43/1/1 42/1/1
f 45/1/1 43/1/1 44/1/1
f 48/5/1 47/5/1 46/5/1
f 49/5/1 47/5/1 48/5/1
f 52/5/1 51/5/1 50/5/1
f 53/5/1 51/5/1 52/5/1
f 56/1/1 55/1/1 54/1/1
f 57/1/1 55/1/1 56/1/1
f 60/5/1 59/5/1 58/5/1
f 61/5/1 59/5/1 60/5/1
f 64/1/1 63/1/1 62/1/1
f 66/1/1 64/1/1 62/1/1
f 66/1/1 65/1/1 64/1/1
f 67/1/1 65/1/1 66/1/1
f 68/1/1 65/1/1 67/1/1
f 69/1/1 65/1/1 68/1/1
f 72/5/1 71/5/1 70/5/1
f 73/5/1 71/5/1 72/5/1
f 74/5/1 71/5/1 73/5/1
f 75/5/1 71/5/1 74/5/1
f 76/5/1 74/5/1 73/5/1
f 77/3/1 75/3/1 74/3/1
f 77/5/1 74/5/1 76/5/1
f 78/5/1 71/5/1 75/5/1
f 78/3/1 75/3/1 77/3/1
f 79/5/1 71/5/1 78/5/1
f 80/3/1 78/3/1 77/3/1
f 81/3/1 78/3/1 80/3/1
f 84/5/1 83/5/1 82/5/1
f 85/5/1 83/5/1 84/5/1
f 88/5/1 87/5/1 86/5/1
f 89/5/1 87/5/1 88/5/1
f 90/5/2 91/5/2 92/5/2
f 92/5/2 91/5/2 93/5/2
f 94/5/2 95/5/2 96/5/2
f 96/5/2 95/5/2 97/5/2
f 97/5/2 95/5/2 98/5/2
f 98/5/2 95/5/2 99/5/2
f 97/5/2 98/5/2 100/5/2
f 98/3/2 99/3/2 101/3/2
f 100/5/2 98/5/2 101/5/2
f 99/5/2 95/5/2 102/5/2
f 101/3/2 99/3/2 102/3/2
f 102/5/2 95/5/2 103/5/2
f 101/3/2 102/3/2 104/3/2
f 104/3/2 102/3/2 105/3/2
f 106/5/2 107/5/2 108/5/2
f 108/5/2 107/5/2 109/5/2
f 110/5/2 111/5/2 112/5/2
f 112/5/2 111/5/2 113/5/2
f 114/1/2 115/1/2 116/1/2
f 114/1/2 116/1/2 118/1/2
f 116/1/2 117/1/2 118/1/2
f 118/1/2 117/1/2 119/1/2
f 119/1/2 117/1/2 120/1/2
f 120/1/2 117/1/2 121/1/2
f 122/5/2 123/5/2 124/5/2
f 124/5/2 123/5/2 125/5/2
f 126/1/2 127/1/2 128/1/2
f 128/1/2 127/1/2 129/1/2
f 130/1/2 131/1/2 133/1/2
f 131/1/2 132/1/2 133/1/2
f 133/1/2 132/1/2 134/1/2
f 135/5/2 136/5/2 137/5/2
f 137/5/2 136/5/2 138/5/2
f 139/5/2 140/5/2 141/5/2
f 141/5/2 140/5/2 142/5/2
f 142/5/2 140/5/2 143/5/2
f 143/5/2 140/5/2 144/5/2
f 142/5/2 143/5/2 145/5/2
f 143/3/2 144/3/2 146/3/2
f 145/5/2 143/5/2 146/5/2
f 144/5/2 140/5/2 147/5/2
f 146/3/2 144/3/2 147/3/2
f 147/5/2 140/5/2 148/5/2
f 146/3/2 147/3/2 149/3/2
f 149/3/2 147/3/2 150/3/2
f 151/1/2 152/1/2 153/1/2
f 153/1/2 152/1/2 154/1/2
f 151/1/2 153/1/2 156/1/2
f 156/1/2 153/1/2 157/1/2
f 154/1/2 152/1/2 158/1/2
f 155/5/2 156/5/2 159/5/2
f 156/1/2 157/1/2 160/1/2
f 159/5/2 156/5/2 160/5/2
f 157/1/2 158/1/2 160/1/2
f 159/1/2 160/1/2 161/1/2
f 158/1/2 152/1/2 162/1/2
f 161/1/2 160/1/2 162/1/2
f 160/1/2 158/1/2 162/1/2
f 163/3/2 164/3/2 165/3/2
f 165/3/2 164/3/2 166/3/2
f 163/3/2 165/3/2 167/3/2
f 167/3/2 165/3/2 168/3/2
f 166/3/2 164/3/2 169/3/2
f 169/3/2 164/3/2 170/3/2
f 171/1/2 172/1/2 173/1/2
f 173/1/2 172/1/2 174/1/2
f 175/1/2 176/1/2 177/1/2
f 177/1/2 176/1/2 178/1/2
f 181/1/3 180/1/3 179/1/3
f 182/1/3 180/1/3 181/1/3
f 189/5/3 186/5/3 185/5/3
f 194/5/3 189/5/3 188/5/3
f 195/5/3 186/5/3 189/5/3
f 195/5/3 189/5/3 194/5/3
f 196/5/3 184/5/3 183/5/3
f 197/5/3 184/5/3 196/5/3
f 199/5/3 191/5/3 190/5/3
f 200/5/3 191/5/3 199/5/3
f 201/1/3 193/1/3 192/1/3
f 202/1/3 193/1/3 201/1/3
f 204/5/3 186/5/3 195/5/3
f 205/1/3 187/1/3 186/1/3
f 205/5/3 186/5/3 204/5/3
f 208/5/3 199/5/3 198/5/3
f 209/5/3 199/5/3 208/5/3
f 213/1/3 204/1/3 203/1/3
f 213/1/3 205/1/3 204/1/3
f 214/1/3 205/1/3 213/1/3
f 215/1/3 187/1/3 205/1/3
f 215/1/3 205/1/3 214/1/3
f 216/5/3 210/5/3 209/5/3
f 217/5/3 210/5/3 216/5/3
f 218/1/3 212/1/3 211/1/3
f 219/1/3 212/1/3 218/1/3
f 221/5/3 215/5/3 214/5/3
f 222/5/3 221/5/3 220/5/3
f 223/5/3 215/5/3 221/5/3
f 223/5/3 221/5/3 222/5/3
f 224/5/3 207/5/3 206/5/3
f 225/5/3 207/5/3 224/5/3
f 226/5/3 215/5/3 223/5/3
f 227/1/3 187/1/3 215/1/3
f 227/5/3 215/5/3 226/5/3
f 228/1/3 187/1/3 227/1/3
f 232/1/3 230/1/3 229/1/3
f 233/1/3 230/1/3 232/1/3
f 234/1/3 230/1/3 233/1/3
f 235/1/3 232/1/3 231/1/3
f 235/1/3 233/1/3 232/1/3
f 236/1/3 233/1/3 235/1/3
f 237/1/3 233/1/3 236/1/3
f 238/1/3 233/1/3 237/1/3
f 239/1/3 233/1/3 238/1/3
f 241/1/3 235/1/3 231/1/3
f 242/1/3 235/1/3 241/1/3
f 243/1/3 237/1/3 236/1/3
f 244/1/3 240/1/3 239/1/3
f 244/1/3 239/1/3 238/1/3
f 245/1/3 240/1/3 244/1/3
f 247/1/3 243/1/3 242/1/3
f 248/1/3 237/1/3 243/1/3
f 248/1/3 243/1/3 247/1/3
f 251/1/3 247/1/3 246/1/3
f 252/1/3 237/1/3 248/1/3
f 253/1/3 237/1/3 252/1/3
f 254/1/3 250/1/3 249/1/3
f 255/1/3 250/1/3 254/1/3
f 256/1/3 250/1/3 255/1/3
f 257/1/3 253/1/3 252/1/3
f 257/1/3 251/1/3 246/1/3
f 257/1/3 255/1/3 254/1/3
f 257/1/3 254/1/3 253/1/3
f 257/1/3 252/1/3 251/1/3
f 258/1/3 255/1/3 257/1/3
f 259/1/3 255/1/3 258/1/3
f 261/1/3 260/1/3 259/1/3
f 261/1/3 259/1/3 258/1/3
f 262/1/3 260/1/3 261/1/3
f 267/5/3 266/5/3 265/5/3
f 268/5/3 266/5/3 267/5/3
f 269/3/3 264/3/3 263/3/3
f 270/3/3 264/3/3 269/3/3
f 271/1/3 268/1/3 267/1/3
f 272/1/3 268/1/3 271/1/3
f 273/3/3 269/3/3 263/3/3
f 274/1/3 270/1/3 269/1/3
f 274/3/3 269/3/3 273/3/3
f 275/5/3 272/5/3 271/5/3
f 276/5/3 272/5/3 275/5/3
f 279/5/3 278/5/3 277/5/3
f 280/5/3 278/5/3 279/5/3
f 281/3/3 273/3/3 263/3/3
f 281/1/3 274/1/3 273/1/3
f 282/1/3 270/1/3 274/1/3
f 282/1/3 274/1/3 281/1/3
f 283/1/3 280/1/3 279/1/3
f 284/1/3 280/1/3 283/1/3
f 285/1/3 270/1/3 282/1/3
f 285/3/3 282/3/3 281/3/3
f 286/1/3 270/1/3 285/1/3
f 287/5/3 284/5/3 283/5/3
f 288/5/3 284/5/3 287/5/3
f 289/3/3 281/3/3 263/3/3
f 289/3/3 285/3/3 281/3/3
f 289/3/3 286/3/3 285/3/3
f 290/3/3 286/3/3 289/3/3
f 293/1/3 292/1/3 291/1/3
f 294/1/3 292/1/3 293/1/3
f 297/3/3 294/3/3 293/3/3
f 298/3/3 294/3/3 297/3/3
f 301/1/3 296/1/3 295/1/3
f 302/1/3 296/1/3 301/1/3
f 303/3/3 300/3/3 299/3/3
f 304/3/3 300/3/3 303/3/3
f 305/3/3 300/3/3 304/3/3
f 306/3/3 300/3/3 305/3/3
f 309/3/3 308/3/3 307/3/3
f 310/3/3 308/3/3 309/3/3
f 311/3/3 308/3/3 310/3/3
f 312/3/3 308/3/3 311/3/3
f 317/3/3 316/3/3 315/3/3
f 318/3/3 316/3/3 317/3/3
f 319/1/3 314/1/3 313/1/3
f 320/1/3 314/1/3 319/1/3
f 321/1/3 318/1/3 317/1/3
f 322/1/3 318/1/3 321/1/3
f 323/1/4 324/1/4 325/1/4
f 325/1/4 324/1/4 326/1/4
f 325/3/4 326/3/4 329/3/4
f 329/3/4 326/3/4 330/3/4
f 327/1/4 328/1/4 333/1/4
f 333/1/4 328/1/4 334/1/4
f 331/3/4 332/3/4 335/3/4
f 335/3/4 332/3/4 336/3/4
f 337/3/4 338/3/4 339/3/4
f 339/3/4 338/3/4 340/3/4
f 343/3/4 344/3/4 345/3/4
f 345/3/4 344/3/4 346/3/4
f 341/1/4 342/1/4 347/1/4
f 347/1/4 342/1/4 348/1/4
f 345/1/4 346/1/4 349/1/4
f 349/1/4 346/1/4 350/1/4
f 351/3/4 352/3/4 357/3/4
f 355/1/4 356/1/4 358/1/4
f 353/5/4 354/5/4 359/5/4
f 359/5/4 354/5/4 360/5/4
f 351/3/4 357/3/4 361/3/4
f 361/3/4 357/3/4 362/3/4
f 361/4/4 362/4/4 365/4/4
f 362/3/4 357/3/4 366/3/4
f 365/4/4 362/4/4 366/4/4
f 357/1/4 358/1/4 367/1/4
f 366/3/4 357/3/4 367/3/4
f 365/3/4 366/3/4 367/3/4
f 358/1/4 356/1/4 368/1/4
f 367/1/4 358/1/4 368/1/4
f 363/5/4 364/5/4 369/5/4
f 369/5/4 364/5/4 370/5/4
f 368/1/4 356/1/4 371/1/4
f 371/1/4 356/1/4 372/1/4
f 365/3/4 367/3/4 373/3/4
f 373/3/4 367/3/4 374/3/4
f 379/5/5 376/5/5 375/5/5
f 380/5/5 376/5/5 379/5/5
f 381/5/5 378/5/5 377/5/5
f 382/5/5 378/5/5 381/5/5
f 385/3/5 384/3/5 383/3/5
f 386/3/5 384/3/5 385/3/5
f 387/3/5 384/3/5 386/3/5
f 388/3/5 384/3/5 387/3/5
f 389/3/5 385/3/5 383/3/5
f 390/4/5 387/4/5 386/4/5
f 391/4/5 387/4/5 390/4/5
f 392/3/5 384/3/5 388/3/5
f 393/3/5 389/3/5 383/3/5
f 393/3/5 390/3/5 389/3/5
f 394/4/5 391/4/5 390/4/5
f 394/3/5 390/3/5 393/3/5
f 395/3/5 392/3/5 391/3/5
f 395/4/5 391/4/5 394/4/5
f 396/3/5 384/3/5 392/3/5
f 396/3/5 392/3/5 395/3/5
f 403/1/5 398/1/5 397/1/5
f 404/3/5 399/3/5 398/3/5
f 404/1/5 398/1/5 403/1/5
f 405/3/5 399/3/5 404/3/5
f 406/3/5 401/3/5 400/3/5
f 407/1/5 402/1/5 401/1/5
f 407/3/5 401/3/5 406/3/5
f 408/1/5 402/1/5 407/1/5
f 412/5/5 410/5/5 409/5/5
f 413/5/5 410/5/5 412/5/5
f 415/1/5 412/1/5 411/1/5
f 415/1/5 414/1/5 413/1/5
f 415/1/5 413/1/5 412/1/5
f 416/1/5 414/1/5 415/1/5
f 423/5/5 418/5/5 417/5/5
f 424/5/5 418/5/5 423/5/5
f 425/5/5 420/5/5 419/5/5
f 426/5/5 420/5/5 425/5/5
f 429/1/5 422/1/5 421/1/5
f 430/1/5 422/1/5 429/1/5
f 431/1/5 428/1/5 427/1/5
f 432/1/5 428/1/5 431/1/5
f 436/1/5 434/1/5 433/1/5
f 437/1/5 434/1/5 436/1/5
f 439/1/5 436/1/5 435/1/5
f 439/1/5 438/1/5 437/1/5
f 439/1/5 437/1/5 436/1/5
f 440/1/5 438/1/5 439/1/5
f 445/1/5 442/1/5 441/1/5
f 446/1/5 442/1/5 445/1/5
f 447/1/5 444/1/5 443/1/5
f 448/1/5 444/1/5 447/1/5
f 453/5/5 450/5/5 449/5/5
f 454/5/5 450/5/5 453/5/5
f 455/5/5 452/5/5 451/5/5
f 456/5/5 452/5/5 455/5/5
f 465/5/5 458/5/5 457/5/5
f 466/5/5 458/5/5 465/5/5
f 467/5/5 460/5/5 459/5/5
f 468/5/5 460/5/5 467/5/5
f 469/5/5 462/5/5 461/5/5
f 470/5/5 462/5/5 469/5/5
f 471/5/5 464/5/5 463/5/5
f 472/5/5 464/5/5 471/5/5
f 473/5/6 474/5/6 477/5/6
f 477/5/6 474/5/6 478/5/6
f 475/5/6 476/5/6 479/5/6
f 479/5/6 476/5/6 480/5/6
f 473/5/6 477/5/6 481/5/6
f 477/1/6 478/1/6 482/1/6
f 481/5/6 477/5/6 482/5/6
f 478/5/6 474/5/6 483/5/6
f 482/1/6 478/1/6 483/1/6
f 483/5/6 474/5/6 484/5/6
f 475/5/6 479/5/6 485/5/6
f 479/1/6 480/1/6 486/1/6
f 485/5/6 479/5/6 486/5/6
f 480/5/6 476/5/6 487/5/6
f 486/1/6 480/1/6 487/1/6
f 487/5/6 476/5/6 488/5/6
f 489/5/6 490/5/6 497/5/6
f 490/1/6 491/1/6 498/1/6
f 497/5/6 490/5/6 498/5/6
f 491/5/6 492/5/6 499/5/6
f 498/1/6 491/1/6 499/1/6
f 499/5/6 492/5/6 500/5/6
f 493/5/6 494/5/6 501/5/6
f 494/1/6 495/1/6 502/1/6
f 501/5/6 494/5/6 502/5/6
f 495/5/6 496/5/6 503/5/6
f 502/1/6 495/1/6 503/1/6
f 503/5/6 496/5/6 504/5/6
f 505/5/6 506/5/6 509/5/6
f 509/5/6 506/5/6 510/5/6
f 507/5/6 508/5/6 511/5/6
f 511/5/6 508/5/6 512/5/6
f 513/3/6 514/3/6 519/3/6
f 515/3/6 516/3/6 520/3/6
f 517/1/6 518/1/6 523/1/6
f 518/3/6 519/3/6 524/3/6
f 523/1/6 518/1/6 524/1/6
f 519/3/6 514/3/6 525/3/6
f 524/3/6 519/3/6 525/3/6
f 515/3/6 520/3/6 526/3/6
f 520/3/6 521/3/6 526/3/6
f 521/1/6 522/1/6 527/1/6
f 526/3/6 521/3/6 527/3/6
f 527/1/6 522/1/6 528/1/6
f 525/3/6 514/3/6 529/3/6
f 529/3/6 514/3/6 530/3/6
f 515/3/6 526/3/6 531/3/6
f 531/3/6 526/3/6 532/3/6
f 533/5/6 534/5/6 535/5/6
f 535/5/6 534/5/6 536/5/6
f 537/5/6 538/5/6 541/5/6
f 541/5/6 538/5/6 542/5/6
f 539/5/6 540/5/6 543/5/6
f 543/5/6 540/5/6 544/5/6
f 545/1/6 546/1/6 549/1/6
f 549/1/6 546/1/6 550/1/6
f 547/1/6 548/1/6 551/1/6
f 551/1/6 548/1/6 552/1/6
f 553/1/6 554/1/6 555/1/6
f 555/1/6 554/1/6 556/1/6
f 557/1/6 558/1/6 561/1/6
f 561/1/6 558/1/6 562/1/6
f 559/1/6 560/1/6 563/1/6
f 563/1/6 560/1/6 564/1/6
f 565/1/6 566/1/6 567/1/6
f 567/1/6 566/1/6 568/1/6
