# MagicaVoxel @ Ephtracy

# group
g Sidewalk

# material
mtllib Sidewalk.mtl
usemtl palette

# normals
vn -1 0 0
vn 1 0 0
vn 0 0 1
vn 0 0 -1
vn 0 -1 0
vn 0 1 0

# texcoords
vt 0.970703 0.5
vt 0.978516 0.5

# verts
v -15 0 20
v -15 0 -20
v -15 3 20
v -15 3 -20
v -15 4 20
v -15 4 -20
v 15 0 20
v 15 0 -20
v 15 3 20
v 15 3 -20
v 15 4 20
v 15 4 -20
v -15 0 20
v -15 3 20
v -15 4 20
v -14 3 20
v -14 4 20
v 14 3 20
v 14 4 20
v 15 0 20
v 15 3 20
v 15 4 20
v -15 0 -20
v -15 3 -20
v -15 4 -20
v 15 0 -20
v 15 3 -20
v 15 4 -20
v -15 0 20
v 15 0 20
v -15 0 -20
v 15 0 -20
v -15 4 20
v -14 4 20
v 14 4 20
v 15 4 20
v -14 4 11
v 14 4 11
v -14 4 10
v 14 4 10
v -14 4 1
v 14 4 1
v -14 4 -0
v 14 4 -0
v -14 4 -9
v 14 4 -9
v -14 4 -10
v 14 4 -10
v -14 4 -19
v 14 4 -19
v -15 4 -20
v 15 4 -20

# faces
f 3/2/1 2/2/1 1/2/1
f 4/2/1 2/2/1 3/2/1
f 5/1/1 4/1/1 3/1/1
f 6/1/1 4/1/1 5/1/1
f 7/2/2 8/2/2 9/2/2
f 9/2/2 8/2/2 10/2/2
f 9/1/2 10/1/2 11/1/2
f 11/1/2 10/1/2 12/1/2
f 16/2/3 14/2/3 13/2/3
f 16/1/3 15/1/3 14/1/3
f 17/1/3 15/1/3 16/1/3
f 18/2/3 16/2/3 13/2/3
f 18/2/3 17/2/3 16/2/3
f 19/2/3 17/2/3 18/2/3
f 20/2/3 18/2/3 13/2/3
f 21/1/3 19/1/3 18/1/3
f 21/2/3 18/2/3 20/2/3
f 22/1/3 19/1/3 21/1/3
f 23/2/4 24/2/4 26/2/4
f 24/1/4 25/1/4 27/1/4
f 26/2/4 24/2/4 27/2/4
f 27/1/4 25/1/4 28/1/4
f 31/2/5 30/2/5 29/2/5
f 32/2/5 30/2/5 31/2/5
f 33/1/6 34/1/6 37/1/6
f 34/2/6 35/2/6 37/2/6
f 35/1/6 36/1/6 38/1/6
f 37/2/6 35/2/6 38/2/6
f 33/1/6 37/1/6 39/1/6
f 37/1/6 38/1/6 39/1/6
f 38/1/6 36/1/6 40/1/6
f 39/1/6 38/1/6 40/1/6
f 33/1/6 39/1/6 41/1/6
f 39/2/6 40/2/6 41/2/6
f 40/1/6 36/1/6 42/1/6
f 41/2/6 40/2/6 42/2/6
f 33/1/6 41/1/6 43/1/6
f 41/1/6 42/1/6 43/1/6
f 42/1/6 36/1/6 44/1/6
f 43/1/6 42/1/6 44/1/6
f 33/1/6 43/1/6 45/1/6
f 43/2/6 44/2/6 45/2/6
f 44/1/6 36/1/6 46/1/6
f 45/2/6 44/2/6 46/2/6
f 33/1/6 45/1/6 47/1/6
f 45/1/6 46/1/6 47/1/6
f 46/1/6 36/1/6 48/1/6
f 47/1/6 46/1/6 48/1/6
f 33/1/6 47/1/6 49/1/6
f 47/2/6 48/2/6 49/2/6
f 48/1/6 36/1/6 50/1/6
f 49/2/6 48/2/6 50/2/6
f 33/1/6 49/1/6 51/1/6
f 49/1/6 50/1/6 51/1/6
f 50/1/6 36/1/6 52/1/6
f 51/1/6 50/1/6 52/1/6
